<svg id="Layer_1" data-name="Layer 1" xmlns="http://www.w3.org/2000/svg" viewBox="0 0 1920 1080"><defs><style>.cls-1{fill:#fff;}</style></defs><title>AHS</title><polygon points="493.28 578.22 595.73 578.22 595.73 622.75 459.13 622.75 493.28 578.22"/><polygon points="580.86 407.04 762.86 407.04 724.29 672.96 561.58 672.96 594.73 521.53 432.61 672.96 270.5 672.96 580.86 407.04"/><polygon points="912.57 407.04 1076.64 407.04 1017.18 498.39 1103.16 498.39 1162.62 407.04 1324.93 407.04 1149.77 672.96 985.84 672.96 1056.56 571.76 966.56 571.76 902.28 672.96 741.57 672.96 912.57 407.04"/><path d="M1764.7,407H1410.52s-56.76,4.58-71.68,27.26l-62.27,97.89s-18.16,27.06,38.27,27.06h173s24.33,20.89-11.68,35.22H1233.92L1182.35,673H1537.5s55.46.3,78.33-39.4l49.62-78.19s12.16-32.23-31.14-32.23H1455.77s-22.38-18.8,5.35-38.5h250.07Z"/><polygon points="22.56 583.3 301.19 583.3 288.06 601.55 22.56 601.55 22.56 583.3"/><polygon points="22.56 618.63 274.81 618.63 262.93 636.88 22.56 636.88 22.56 618.63"/><polygon points="22.56 653.96 248.94 653.96 236.19 672.21 22.56 672.21 22.56 653.96"/><polygon points="1897.44 672.21 1618.81 672.21 1631.94 653.96 1897.44 653.96 1897.44 672.21"/><polygon points="1897.44 636.88 1645.19 636.88 1657.07 618.63 1897.44 618.63 1897.44 636.88"/><polygon points="1897.44 601.55 1671.06 601.55 1683.81 583.3 1897.44 583.3 1897.44 601.55"/><path class="cls-1" d="M1735.25,557.06H599.08s-17.17-1-10.58-10.58l38.08-52.08s5.33-12.17-8.17-12.17H253.25v21.5h285.5s11.17,1.83,4.83,11.33l-37.17,51.67s-5.5,11.5,10.5,11.5H1751.75Z"/></svg>
